<?xml version="1.0" encoding="UTF-8"?>
<svg version="1.1" xmlns="http://www.w3.org/2000/svg" width="1024" height="1024">
<path d="M0 0 C1.06525909 -0.00960754 2.13051819 -0.01921509 3.22805786 -0.02911377 C4.3708017 -0.03336365 5.51354553 -0.03761353 6.69091797 -0.04199219 C8.47234695 -0.0505423 8.47234695 -0.0505423 10.2897644 -0.05926514 C12.80303052 -0.06870444 15.31630896 -0.07524487 17.82958984 -0.07910156 C21.64817315 -0.08877866 25.46621154 -0.11980154 29.28466797 -0.15136719 C31.73258146 -0.15790068 34.18049878 -0.16314979 36.62841797 -0.16699219 C37.75901642 -0.17933899 38.88961487 -0.19168579 40.05447388 -0.20440674 C50.47282373 -0.17556769 59.50335192 2.15600967 68.74560547 6.91113281 C69.77186035 7.42848999 69.77186035 7.42848999 70.81884766 7.95629883 C75.44036684 10.36678362 79.31969326 13.05911655 82.97998047 16.81347656 C84.89888204 18.45214251 86.02637639 19.04428378 88.55810547 19.16113281 C90.47296286 17.77633671 90.47296286 17.77633671 92.30810547 15.72363281 C98.46710512 9.88284814 105.89331446 6.60641766 113.55810547 3.16113281 C114.39857422 2.77699219 115.23904297 2.39285156 116.10498047 1.99707031 C123.11561335 -0.39190331 130.60517818 -0.02955569 137.92138672 -0.07714844 C139.70212837 -0.08925606 139.70212837 -0.08925606 141.5188446 -0.10160828 C144.02434855 -0.11540106 146.5298709 -0.12614456 149.03540039 -0.1340332 C151.58688904 -0.14556517 154.13835334 -0.16603588 156.68969727 -0.19555664 C160.39209249 -0.23835475 164.09377444 -0.25441793 167.79638672 -0.26464844 C168.92587234 -0.28215652 170.05535797 -0.29966461 171.21907043 -0.31770325 C180.49306006 -0.29252986 189.00178114 1.70688687 195.95654297 8.20019531 C204.06991914 18.13413394 204.71269189 28.76458992 204.6875 40.99243164 C204.69012848 42.57701927 204.69012848 42.57701927 204.69281006 44.19361877 C204.69719314 47.66848417 204.69430242 51.1432982 204.69091797 54.61816406 C204.69159218 57.04660553 204.69256318 59.47504693 204.69381714 61.90348816 C204.69528944 66.98815556 204.69315512 72.07280536 204.68847656 77.1574707 C204.68278871 83.65350406 204.68605529 90.14949601 204.69204903 96.64552784 C204.69567504 101.66001188 204.69450653 106.67448622 204.69192123 111.68897057 C204.69125713 114.08300468 204.69206221 116.4770397 204.69440079 118.87107277 C204.69695985 122.22795543 204.69304074 125.58477257 204.6875 128.94165039 C204.68952423 129.91811523 204.69154846 130.89458008 204.69363403 131.90063477 C204.65520846 144.561655 204.26750226 155.33294862 195.24560547 165.03613281 C189.07145281 170.75194226 182.28612061 173.26408669 173.9543457 173.31884766 C172.82894882 173.3291098 171.70355194 173.33937195 170.54405212 173.34994507 C169.33052567 173.3572464 168.11699921 173.36454773 166.86669922 173.37207031 C164.28661489 173.40015171 161.70653685 173.42881625 159.12646484 173.45800781 C155.06717338 173.50028183 151.0079199 173.53708941 146.94848633 173.5625 C143.02517817 173.58771086 139.10229081 173.63615157 135.17919922 173.68457031 C133.38016396 173.68944962 133.38016396 173.68944962 131.54478455 173.69442749 C117.76396175 173.89338793 105.9797687 177.45263999 95.37060547 186.41113281 C92.51563037 188.74136171 90.42393573 190.21762534 86.99560547 191.66113281 C82.31680025 190.98057933 80.52919823 188.6682232 77.21044922 185.43457031 C65.87803035 175.72106842 52.67136167 173.8757017 38.30810547 173.88769531 C35.7351844 173.86741346 33.16226775 173.84656282 30.58935547 173.82519531 C26.56717734 173.80258776 22.54518188 173.78526834 18.52294922 173.78027344 C14.61768538 173.77072978 10.71319507 173.73694046 6.80810547 173.70019531 C5.61411133 173.70524078 4.42011719 173.71028625 3.18994141 173.71548462 C-6.88680709 173.59736409 -14.20927907 171.1029012 -21.64892578 164.22753906 C-26.88084243 158.19772662 -29.55105436 150.99256166 -29.58906555 143.08457947 C-29.59622086 142.06003662 -29.60337616 141.03549377 -29.61074829 139.97990417 C-29.61478165 138.30218681 -29.61478165 138.30218681 -29.61889648 136.59057617 C-29.62546768 135.40797211 -29.63203888 134.22536804 -29.6388092 133.00692749 C-29.6585389 129.08828372 -29.67021077 125.16965339 -29.68017578 121.25097656 C-29.68422577 119.89783776 -29.68834277 118.54469915 -29.69252586 117.19156075 C-29.71157145 110.82970841 -29.72580093 104.4678676 -29.73413783 98.10599226 C-29.74389281 90.78440991 -29.77016903 83.4631313 -29.81063873 76.14165586 C-29.8409066 70.46926091 -29.85561696 64.79695247 -29.85891885 59.1244784 C-29.8612582 55.74318191 -29.87007073 52.36221008 -29.89538002 48.9810009 C-29.91981629 45.19957442 -29.91879733 41.41893301 -29.91186523 37.63745117 C-29.92467529 36.53314255 -29.93748535 35.42883392 -29.95068359 34.2910614 C-29.88304039 24.11819093 -27.52605969 15.36067881 -20.37158203 7.88378906 C-14.04615943 2.23700492 -8.47890056 0.06206552 0 0 Z M-13.44189453 20.16113281 C-15.13410763 23.66219351 -15.69465656 26.46976407 -15.70932007 30.34016418 C-15.71785004 31.36200302 -15.72638 32.38384186 -15.73516846 33.43664551 C-15.73426208 34.54689087 -15.73335571 35.65713623 -15.73242188 36.80102539 C-15.7391391 37.97884079 -15.74585632 39.15665619 -15.7527771 40.37016296 C-15.76850304 43.59348207 -15.77513118 46.81664639 -15.77640867 50.03999925 C-15.7778328 52.05674921 -15.78210737 54.07347239 -15.78740311 56.09021568 C-15.80589411 63.13446129 -15.81407503 70.17863132 -15.8125 77.22290039 C-15.81129936 83.77529275 -15.83238862 90.3273553 -15.86398733 96.87966424 C-15.89019576 102.51637716 -15.90086537 108.15298267 -15.89958918 113.789756 C-15.89908081 117.15136075 -15.9046937 120.51267236 -15.92594528 123.87421608 C-15.94557145 127.62744008 -15.93977919 131.37981862 -15.92773438 135.13305664 C-15.9445929 136.78931564 -15.9445929 136.78931564 -15.96179199 138.47903442 C-15.91002966 144.83626326 -15.25706485 149.9169887 -11.44189453 155.16113281 C-6.01093298 159.76564369 -0.7445495 160.27743316 6.17358398 160.30297852 C7.25233292 160.31001297 8.33108185 160.31704742 9.44252014 160.32429504 C10.59570236 160.32845932 11.74888458 160.3326236 12.93701172 160.33691406 C15.41032743 160.36012219 17.88363474 160.38423992 20.35693359 160.40917969 C24.23174594 160.4441761 28.10625054 160.47358288 31.98120117 160.48706055 C35.73767921 160.50266154 39.49327171 160.54295539 43.24951172 160.58691406 C44.95803062 160.58405144 44.95803062 160.58405144 46.70106506 160.58113098 C57.50822285 160.74302949 67.49788519 163.22585944 76.55810547 169.22363281 C78.10498047 170.23103516 78.10498047 170.23103516 79.68310547 171.25878906 C80.63185547 171.8865625 81.58060547 172.51433594 82.55810547 173.16113281 C84.2193707 174.17008058 85.8841528 175.17337766 87.55810547 176.16113281 C88.22455078 175.64164063 88.89099609 175.12214844 89.57763672 174.58691406 C102.7740451 164.60193933 114.35164557 160.88171983 130.74560547 160.85253906 C133.32633698 160.82738797 135.9070661 160.80198982 138.48779297 160.77636719 C142.5297543 160.74561851 146.57173566 160.72334972 150.61376953 160.70483398 C154.53289302 160.68581226 158.45165207 160.6437147 162.37060547 160.60253906 C163.57289795 160.60242325 164.77519043 160.60230743 166.01391602 160.60218811 C173.95651536 160.50882662 180.27297398 160.08918479 186.43310547 154.59863281 C191.43793476 147.78089088 190.84958358 137.93601983 190.81689453 129.87158203 C190.82039917 128.7905722 190.82390381 127.70956238 190.82751465 126.59579468 C190.83625709 123.05240295 190.83051014 119.50921377 190.82373047 115.96582031 C190.82507907 113.48820966 190.82702123 111.01059926 190.82952881 108.5329895 C190.83246976 103.35351021 190.82821478 98.17410013 190.81884766 92.99462891 C190.80744188 86.36603742 190.81402637 79.73760772 190.82599258 73.10902214 C190.83322874 67.99771918 190.83091537 62.88645442 190.825737 57.7751503 C190.82440599 55.33118801 190.82602895 52.88722221 190.83069611 50.44326401 C190.83579147 47.02604769 190.82800913 43.60909154 190.81689453 40.19189453 C190.82296722 38.68767944 190.82296722 38.68767944 190.8291626 37.15307617 C190.81874195 27.64999176 190.81874195 27.64999176 187.07763672 19.13769531 C186.23265625 18.46867187 186.23265625 18.46867187 185.37060547 17.78613281 C184.82017578 17.32464844 184.26974609 16.86316406 183.70263672 16.38769531 C177.68149566 12.94390972 171.49631778 12.85337489 164.74169922 12.86035156 C163.8081813 12.85606644 162.87466339 12.85178131 161.91285706 12.84736633 C159.94199429 12.84164356 157.97111041 12.84110757 156.00024414 12.84545898 C153.02891613 12.84859763 150.058606 12.82520802 147.08740234 12.79980469 C128.01236902 12.7348056 109.89857309 15.1103716 95.55810547 29.16113281 C95.55810547 29.82113281 95.55810547 30.48113281 95.55810547 31.16113281 C91.98189892 33.30685674 88.71769669 34.01769863 84.55810547 34.16113281 C81.58575456 32.6433366 79.30991483 30.87756291 76.89794922 28.57910156 C64.75685471 17.15977063 49.83752683 13.03490546 33.53076172 12.95800781 C32.58301376 12.95230774 31.63526581 12.94660767 30.65879822 12.94073486 C28.66276146 12.93132846 26.66670947 12.92476832 24.6706543 12.92089844 C21.63351242 12.91117414 18.5970426 12.8801016 15.56005859 12.84863281 C13.61279695 12.84210325 11.66553051 12.8368526 9.71826172 12.83300781 C8.81906509 12.82066101 7.91986847 12.80831421 6.99342346 12.79559326 C-0.85118251 12.82304112 -7.69054786 14.40978614 -13.44189453 20.16113281 Z " fill="#87C1B6" transform="translate(111.44189453125,404.8388671875)"/>
<path d="M0 0 C4.2729277 3.05105836 8.35218458 6.21365994 12 10 C12.36351562 9.28972656 12.72703125 8.57945312 13.1015625 7.84765625 C17.21340131 0.33037145 17.21340131 0.33037145 21.125 -1.3125 C24.51868579 -0.94362111 25.83369448 -0.66622218 28 2 C29.81970459 10.55261158 23.4534299 18.76746123 19.125 25.75 C18.073125 27.35875 18.073125 27.35875 17 29 C17.52207031 28.77183594 18.04414063 28.54367187 18.58203125 28.30859375 C25.67196579 25.5396701 31.98530195 25.40048424 39.265625 27.72265625 C46.62200203 30.96563926 51.31928422 37.07602443 54.30859375 44.41796875 C57.50545159 56.35651694 53.79820363 67.89837836 47.85546875 78.2578125 C41.90013296 87.05917192 33.92051648 94.12440258 23.41015625 96.61328125 C17.88210904 97.50027748 12.51212585 96.8994444 7.015625 96.12109375 C4.79317521 95.86196905 4.79317521 95.86196905 2 97 C-6.35399879 97.87020821 -14.0256941 94.72889317 -20.75 89.875 C-25.50405771 85.93032488 -28.6724858 81.14644036 -32 76 C-32.53882813 75.30261719 -33.07765625 74.60523438 -33.6328125 73.88671875 C-37.97856947 67.88957414 -37.66201216 57.17179837 -37 50 C-35.03778424 39.34084492 -29.37149226 32.53868035 -21 26 C-21.5775 25.01 -22.155 24.02 -22.75 23 C-23.1109375 22.35675781 -23.471875 21.71351563 -23.84375 21.05078125 C-24.59240671 19.72292729 -25.36213059 18.40664413 -26.15625 17.10546875 C-29.14905678 11.85736829 -30.06242671 7.00271089 -29 1 C-27.25481904 -1.55544354 -26.17602279 -2.58477555 -23.28515625 -3.60546875 C-15.71737835 -4.91204237 -6.61027539 -3.88839729 0 0 Z M-16 9 C-15.22520264 11.99152582 -15.22520264 11.99152582 -14 15 C-13.01 15.33 -12.02 15.66 -11 16 C-10.7525 16.61875 -10.505 17.2375 -10.25 17.875 C-8.29496763 21.19855503 -5.54559555 21.77738085 -2 23 C-0.68 23 0.64 23 2 23 C1.72785002 18.50952531 -0.19549611 15.82515238 -3.109375 12.5859375 C-6.4487965 9.78468723 -11.82508389 6.91254195 -16 9 Z " fill="#F5BBA8" transform="translate(165,448)"/>
<path d="M0 0 C0.66 0.33 1.32 0.66 2 1 C2.91027893 4.96788252 3.11947957 8.77680061 3.09765625 12.8359375 C3.09443359 13.89941406 3.09121094 14.96289062 3.08789062 16.05859375 C3.07951172 17.15300781 3.07113281 18.24742187 3.0625 19.375 C3.05798828 20.49261719 3.05347656 21.61023438 3.04882812 22.76171875 C3.03709244 25.50786804 3.02067363 28.25390586 3 31 C5.25416667 31.2 5.25416667 31.2 7.5 29.125 C13.34327579 25.16345709 19.83148465 24.57022841 26.6875 25.625 C36.02364461 27.69238322 42.51995927 33.09046063 47.86328125 40.9453125 C53.29544687 50.76427853 53.66802066 63.68504591 50.875 74.375 C47.22590611 84.54515982 41.26726479 90.33488032 31.74609375 95.13671875 C28.04135114 96.30136756 24.4703182 96.36827742 20.625 96.375 C19.53058594 96.41173828 19.53058594 96.41173828 18.4140625 96.44921875 C12.82587524 96.47915547 9.58435051 95.21484833 5 92 C4.34 91.01 3.68 90.02 3 89 C2.566875 90.175625 2.566875 90.175625 2.125 91.375 C1 94 1 94 -1 96 C-3.05859375 96.265625 -3.05859375 96.265625 -5.4375 96.25 C-6.61119141 96.25773438 -6.61119141 96.25773438 -7.80859375 96.265625 C-10 96 -10 96 -13 94 C-14.4112108 87.95441759 -14.14481722 81.73353506 -14.1328125 75.5546875 C-14.13376923 74.46664825 -14.13472595 73.37860901 -14.13571167 72.25759888 C-14.13638987 69.96649111 -14.13456076 67.67538138 -14.13037109 65.38427734 C-14.12500741 61.87983899 -14.13033366 58.3755282 -14.13671875 54.87109375 C-14.13605811 52.64062472 -14.13477723 50.41015576 -14.1328125 48.1796875 C-14.13483673 47.13376434 -14.13686096 46.08784119 -14.13894653 45.01022339 C-14.13579437 44.03215729 -14.13264221 43.05409119 -14.12939453 42.04638672 C-14.12859894 41.19035858 -14.12780334 40.33433044 -14.12698364 39.45236206 C-13.99407224 36.88552067 -13.56397012 34.50460955 -13 32 C-13.66 31.67 -14.32 31.34 -15 31 C-14.67 30.34 -14.34 29.68 -14 29 C-13.89344249 27.00328468 -13.84454523 25.00335953 -13.82421875 23.00390625 C-13.80037109 21.80572266 -13.77652344 20.60753906 -13.75195312 19.37304688 C-13.70905333 16.83675883 -13.6777654 14.30024727 -13.65820312 11.76367188 C-13.63048828 10.56419922 -13.60277344 9.36472656 -13.57421875 8.12890625 C-13.55963623 7.02619385 -13.54505371 5.92348145 -13.5300293 4.78735352 C-13 2 -13 2 -11.15161133 0.17944336 C-6.66095516 -2.28218831 -4.67556516 -1.79064198 0 0 Z M6.75 45.4375 C1.78826996 52.70289041 1.38916893 60.25915884 2.625 68.875 C3.60313526 73.57138916 5.13408689 76.00391734 9 79 C9.66 79.66 10.32 80.32 11 81 C16.1875022 82.99519315 21.59935104 82.44353884 26.75 80.8125 C31.11931935 78.37576421 33.07948877 75.88704802 35.25 71.4375 C36.99627127 63.43375668 37.14316253 54.30466982 33 47 C28.91323122 42.42050023 25.4242195 40.15896521 19.1875 39.75 C13.85494639 39.83806052 10.38977519 41.49441021 6.75 45.4375 Z " fill="#84C2B6" transform="translate(700,441)"/>
<path d="M0 0 C0.86625 -0.02191406 1.7325 -0.04382813 2.625 -0.06640625 C5 0.5625 5 0.5625 6.61865234 2.50146484 C8.54004314 6.75922338 8.45960534 10.54603918 8.4765625 15.16796875 C8.49214203 16.08838455 8.50772156 17.00880035 8.52377319 17.95710754 C8.57118734 20.88806351 8.5990281 23.8187823 8.625 26.75 C8.66148698 29.69176295 8.70207486 32.63339136 8.74765015 35.57502747 C8.77488326 37.40346905 8.79623174 39.23200943 8.81118774 41.06059265 C8.82144989 41.88517471 8.83171204 42.70975677 8.84228516 43.55932617 C8.85202866 44.64923103 8.85202866 44.64923103 8.86196899 45.76115417 C8.89381559 47.6647727 8.89381559 47.6647727 10 49.5625 C9.34 50.2225 8.68 50.8825 8 51.5625 C20.5 39.0625 20.5 39.0625 22.859375 36.71484375 C24.09442505 35.47303248 25.31950672 34.22075957 26.515625 32.94140625 C29.90121562 29.33082385 32.89405957 27.7322411 37.859375 27.33203125 C39.29023437 27.35330078 39.29023437 27.35330078 40.75 27.375 C41.71421875 27.38144531 42.6784375 27.38789063 43.671875 27.39453125 C46 27.5625 46 27.5625 47 28.5625 C47.4461641 31.81213136 47.31831048 33.13968898 45.31933594 35.79492188 C44.54879883 36.53291016 43.77826172 37.27089844 42.984375 38.03125 C42.14519531 38.84980469 41.30601562 39.66835938 40.44140625 40.51171875 C39.55324219 41.35347656 38.66507813 42.19523437 37.75 43.0625 C36.01352859 44.7374126 34.27908566 46.41443127 32.546875 48.09375 C31.77182617 48.83173828 30.99677734 49.56972656 30.19824219 50.33007812 C27.94393685 52.61943486 25.96324243 55.02157041 24 57.5625 C25.51561969 62.44922531 28.34778924 65.57724352 31.6875 69.3125 C32.77621451 70.55600188 33.86345869 71.80079262 34.94921875 73.046875 C35.47435059 73.64822266 35.99948242 74.24957031 36.54052734 74.86914062 C39.51331108 78.31832563 42.28701367 81.90750452 45 85.5625 C45.4434375 86.13613281 45.886875 86.70976563 46.34375 87.30078125 C47.992143 89.54504605 49.01630148 90.97564662 48.9375 93.8125 C48 95.5625 48 95.5625 45 97.5625 C41.45183325 98.53254926 38.55244464 98.5327267 35 97.5625 C31.03434947 94.4243036 28.05049842 90.56175711 25 86.5625 C24.09729299 85.41202316 23.19363639 84.26229082 22.2890625 83.11328125 C20.57999315 80.9260059 18.89844344 78.72428006 17.2265625 76.5078125 C16.49179687 75.53585937 15.75703125 74.56390625 15 73.5625 C14.28585937 72.61117187 13.57171875 71.65984375 12.8359375 70.6796875 C12.23007812 69.98101562 11.62421875 69.28234375 11 68.5625 C10.34 68.5625 9.68 68.5625 9 68.5625 C8.98018066 69.19752441 8.96036133 69.83254883 8.93994141 70.48681641 C8.84418878 73.38743326 8.73471454 76.28737905 8.625 79.1875 C8.57859375 80.68603516 8.57859375 80.68603516 8.53125 82.21484375 C8.14577808 91.91588703 8.14577808 91.91588703 6 96.5625 C3.67313547 97.72593227 2.15278587 97.76145988 -0.4375 97.8125 C-1.61119141 97.85117187 -1.61119141 97.85117187 -2.80859375 97.890625 C-5 97.5625 -5 97.5625 -6.72265625 96.296875 C-9.74544489 92.19253813 -9.12060799 87.15674929 -9.06933594 82.27734375 C-9.06454727 81.44437775 -9.05975861 80.61141174 -9.05482483 79.75320435 C-9.03715256 77.00205805 -9.01140535 74.25106937 -8.984375 71.5 C-8.96768044 69.58715848 -8.95101829 67.67431668 -8.93438721 65.76147461 C-8.89792917 61.75336773 -8.85670309 57.74533856 -8.81298828 53.73730469 C-8.75795079 48.59918361 -8.72144325 43.4611082 -8.68935776 38.32279968 C-8.66151047 34.37304395 -8.62045725 30.42350507 -8.57575226 26.47390747 C-8.55654821 24.57931811 -8.54225672 22.68467239 -8.53295135 20.79000854 C-8.5186381 18.14219449 -8.48574182 15.49522943 -8.44824219 12.84765625 C-8.44810623 12.06415802 -8.44797028 11.28065979 -8.4478302 10.47341919 C-8.38537369 7.24263875 -8.20497558 4.93133453 -6.62042236 2.08007812 C-4.40976615 0.00972684 -2.99530586 -0.0044573 0 0 Z " fill="#85C2B7" transform="translate(629,439.4375)"/>
<path d="M0 0 C6.9119965 3.91451683 11.13656973 9.8472092 13.625 17.3125 C13.72678841 18.91246031 13.77337173 20.51624066 13.78613281 22.11938477 C13.79574036 23.09371964 13.8053479 24.0680545 13.81524658 25.07191467 C13.81949646 26.12197189 13.82374634 27.17202911 13.828125 28.25390625 C13.83382507 29.33252426 13.83952515 30.41114227 13.84539795 31.52244568 C13.85484504 33.80295836 13.86138077 36.08348468 13.86523438 38.36401367 C13.87497124 41.86465938 13.90601043 45.36472572 13.9375 48.86523438 C13.94402689 51.0781215 13.94927859 53.29101284 13.953125 55.50390625 C13.9654718 56.5559877 13.9778186 57.60806915 13.99053955 58.69203186 C13.98753845 59.66321457 13.98453735 60.63439728 13.98144531 61.63500977 C13.98691376 62.92049461 13.98691376 62.92049461 13.99249268 64.23194885 C13.87122009 64.91853073 13.74994751 65.60511261 13.625 66.3125 C9.63047208 68.97551861 6.32374395 69.16008428 1.625 68.3125 C-1.4375 65.8125 -1.4375 65.8125 -3.375 63.3125 C-3.96925781 63.66183594 -4.56351563 64.01117187 -5.17578125 64.37109375 C-13.63092421 69.01287519 -21.86022706 70.64989841 -31.30859375 68.09765625 C-37.96165077 65.56974611 -41.38210656 61.64362074 -44.375 55.3125 C-46.10003997 50.85614675 -46.15179793 45.722793 -44.69140625 41.19140625 C-41.49492708 34.17506815 -36.49822095 30.28050873 -29.375 27.3125 C-23.77721734 26.03076472 -18.20701928 26.19973493 -12.5 26.25 C-11.52546875 26.25451172 -10.5509375 26.25902344 -9.546875 26.26367188 C-7.15618566 26.27539094 -4.7656256 26.29179781 -2.375 26.3125 C-3.57965773 18.65163162 -3.57965773 18.65163162 -8.4375 13.0625 C-13.03774996 11.76072714 -17.78595295 12.12512419 -22.375 13.3125 C-24.90981429 15.19736191 -26.07856663 16.81844438 -27.6875 19.5 C-30.21102569 22.21045352 -32.79504597 21.98704963 -36.375 22.3125 C-37.035 22.6425 -37.695 22.9725 -38.375 23.3125 C-38.375 22.6525 -38.375 21.9925 -38.375 21.3125 C-39.014375 21.18875 -39.65375 21.065 -40.3125 20.9375 C-41.3334375 20.628125 -41.3334375 20.628125 -42.375 20.3125 C-43.78515916 17.49218167 -43.02910411 15.41538982 -42.22265625 12.47265625 C-39.7739992 6.23253021 -35.15550883 2.7375829 -29.20703125 0.0390625 C-20.94043919 -3.23937273 -8.24731054 -3.47845751 0 0 Z M-27.375 41.3125 C-29.52694822 43.80875993 -29.38740406 45.01480266 -29.25 48.3125 C-28.20707637 51.88823817 -27.43947567 53.19093992 -24.375 55.3125 C-18.05637992 56.91892884 -13.2412402 56.14169065 -7.375 53.3125 C-4.45342789 50.97524231 -3.55923862 49.86521587 -2.375 46.3125 C-2.33545766 43.97950175 -2.33098268 41.64541811 -2.375 39.3125 C-9.20572431 35.89713784 -20.92916606 37.77361078 -27.375 41.3125 Z " fill="#84C1B6" transform="translate(525.375,468.6875)"/>
<path d="M0 0 C2.74713252 0.45416304 4.11808342 1.20978927 5.9375 3.3203125 C7.40239837 8.22648266 7.0630889 13.36454042 7.03515625 18.43359375 C7.0337413 19.40314499 7.03232635 20.37269623 7.03086853 21.37162781 C7.02528513 24.45872117 7.01273564 27.54574117 7 30.6328125 C6.99498286 32.72981666 6.99042032 34.82682196 6.98632812 36.92382812 C6.97532112 42.05601771 6.95806788 47.18815268 6.9375 52.3203125 C7.2675 51.6603125 7.5975 51.0003125 7.9375 50.3203125 C8.5975 50.3203125 9.2575 50.3203125 9.9375 50.3203125 C10.32228516 49.44246094 10.32228516 49.44246094 10.71484375 48.546875 C12.04312162 46.12796642 13.50274801 44.58832378 15.5 42.6953125 C18.07765389 40.27509291 18.07765389 40.27509291 19.9375 37.3203125 C20.5975 37.3203125 21.2575 37.3203125 21.9375 37.3203125 C22.164375 36.7634375 22.39125 36.2065625 22.625 35.6328125 C24.89350449 31.63592364 27.55649946 28.78064601 31.9375 27.3203125 C33.78977252 27.22673558 35.6453718 27.19037341 37.5 27.1953125 C38.47066406 27.19273437 39.44132813 27.19015625 40.44140625 27.1875 C42.9375 27.3203125 42.9375 27.3203125 44.9375 28.3203125 C45.8515625 30.04296875 45.8515625 30.04296875 45.9375 32.3203125 C44.0859375 34.87890625 44.0859375 34.87890625 41.3125 37.7578125 C40.82483154 38.26989258 40.33716309 38.78197266 39.8347168 39.30957031 C38.21796763 40.99585982 36.58091676 42.66001614 34.9375 44.3203125 C34.34308105 44.92311035 33.74866211 45.5259082 33.13623047 46.14697266 C29.42903194 49.89775033 25.69330789 53.61824431 21.9375 57.3203125 C23.63786965 61.24941525 26.22911338 64.43508184 28.875 67.7578125 C29.35501465 68.36890869 29.8350293 68.98000488 30.32958984 69.60961914 C32.83426666 72.77404265 35.39093526 75.8680004 38.07421875 78.8828125 C38.5751001 79.4507251 39.07598145 80.0186377 39.59204102 80.60375977 C40.54723422 81.67821335 41.51463327 82.74198246 42.49584961 83.79272461 C45.77250861 87.48493041 46.83077141 90.39300913 46.9375 95.3203125 C44.36350489 97.89430761 43.20180716 97.64691186 39.625 97.6953125 C38.68011719 97.72367188 37.73523438 97.75203125 36.76171875 97.78125 C30.74083881 96.7985891 27.69754959 91.97023062 24.25 87.3203125 C19.35742074 80.79905628 14.20588614 74.54149188 8.9375 68.3203125 C7.10522462 71.46168181 6.67950207 73.7992102 6.62890625 77.41796875 C6.60376953 78.38412109 6.57863281 79.35027344 6.55273438 80.34570312 C6.51751143 82.37428387 6.48627634 84.40293768 6.45898438 86.43164062 C6.43255859 87.39650391 6.40613281 88.36136719 6.37890625 89.35546875 C6.36545166 90.235979 6.35199707 91.11648926 6.33813477 92.02368164 C5.85977081 94.76589355 5.13267425 95.65834251 2.9375 97.3203125 C0.78125 97.75390625 0.78125 97.75390625 -1.5625 97.7578125 C-2.3359375 97.77714844 -3.109375 97.79648437 -3.90625 97.81640625 C-6.0625 97.3203125 -6.0625 97.3203125 -7.67300415 95.82434082 C-9.67102885 92.22367484 -9.48070417 88.7716942 -9.45068359 84.75976562 C-9.45594055 83.89753891 -9.46119751 83.03531219 -9.46661377 82.1469574 C-9.479812 79.29830788 -9.47107631 76.45021766 -9.4609375 73.6015625 C-9.46295829 71.62145887 -9.46586976 69.64135596 -9.46963501 67.66125488 C-9.47405812 63.51189079 -9.46762765 59.36272047 -9.45361328 55.21337891 C-9.43652147 49.89345119 -9.44636271 44.57397752 -9.46433067 39.25406647 C-9.47516881 35.16543148 -9.47172202 31.07690422 -9.4639473 26.98826599 C-9.46194537 25.02664639 -9.46440428 23.06501702 -9.47138596 21.10340881 C-9.47900085 18.36229527 -9.46739571 15.62191805 -9.45068359 12.88085938 C-9.45675629 12.06930893 -9.46282898 11.25775848 -9.46908569 10.4216156 C-9.43243514 7.17841236 -9.269715 4.72685623 -7.78433228 1.81262207 C-5.36378821 -0.28526001 -3.10852577 -0.17142605 0 0 Z " fill="#84C0B5" transform="translate(915.0625,439.6796875)"/>
<path d="M0 0 C7.05832901 6.58027485 10.14938193 15.64202492 10.93359375 25.0859375 C11.24311332 35.46394668 8.58676362 45.21867111 2.75 53.875 C0.2734375 55.5625 0.2734375 55.5625 -2.25 56.875 C-2.84941406 57.30941406 -3.44882812 57.74382812 -4.06640625 58.19140625 C-11.39345373 63.42032828 -19.55166729 64.47508133 -28.375 63.375 C-37.68044634 61.44092684 -44.39823773 56.89412629 -49.84765625 49.13671875 C-55.26237241 40.40379213 -56.14661788 29.84772736 -54.84765625 19.74609375 C-52.62738052 10.51027223 -48.22505335 2.42425026 -40.26171875 -2.9453125 C-27.03230757 -10.70314197 -11.97981354 -9.47656892 0 0 Z M-34.25 10.875 C-39.32167078 17.26097571 -39.96276382 25.00867931 -39.25 32.875 C-38.01024061 38.87855924 -36.13383939 42.94410488 -31.25 46.875 C-26.72002402 49.56824202 -22.38861012 49.50050108 -17.25 48.875 C-13.02071671 47.53985764 -10.1805727 45.2087582 -7.875 41.4375 C-4.12346077 33.21297169 -4.35557049 24.72763819 -7.125 16.1796875 C-9.26564442 11.79433955 -12.94835441 9.0258228 -17.25 6.875 C-24.06855126 6.11461311 -28.79578038 6.6207087 -34.25 10.875 Z " fill="#85C2B7" transform="translate(886.25,474.125)"/>
<path d="M0 0 C7.77121139 8.63656463 9.30281868 18.76572182 9.03125 30.04296875 C8.45288567 39.46471022 5.48109212 46.25764376 -1.2109375 52.98828125 C-8.67295845 58.95534253 -16.34547865 62.49963956 -26.04296875 61.77734375 C-35.19734774 60.53169013 -43.03187019 58.07594494 -49.0859375 50.80078125 C-50.17226021 49.22651218 -51.21601656 47.62185171 -52.2109375 45.98828125 C-52.86255859 44.93060547 -52.86255859 44.93060547 -53.52734375 43.8515625 C-58.23917902 34.4443095 -57.83539025 20.83126894 -54.7734375 10.92578125 C-50.89686875 2.17969807 -44.28228269 -4.38056946 -35.54296875 -8.1796875 C-22.80629272 -12.7239287 -9.66307036 -8.98935032 0 0 Z M-37.5234375 11.48828125 C-41.75210861 17.75297918 -40.87720631 26.69096282 -40.2109375 33.98828125 C-39.10998781 38.92929041 -37.31943008 42.63837856 -33.0859375 45.55078125 C-27.49533697 48.17175096 -21.54288522 47.80878137 -15.8359375 45.80078125 C-11.81123072 43.02181704 -8.97929845 39.54521139 -7.2109375 34.98828125 C-6.0522592 22.79032127 -6.0522592 22.79032127 -9.828125 11.50390625 C-13.97966707 6.9536285 -18.14012306 4.71504367 -24.3359375 4.42578125 C-30.29169377 4.75462669 -33.52581462 7.16652678 -37.5234375 11.48828125 Z " fill="#85C2B6" transform="translate(815.2109375,476.01171875)"/>
<path d="M0 0 C7.47049691 7.19884247 9.07770905 16.36163813 9.35902405 26.36543274 C9.41280154 30.07741192 9.41594226 33.78726122 9.39111328 37.49951172 C9.37491892 40.38946898 9.39108251 43.27805192 9.41015625 46.16796875 C9.40817569 48.01562807 9.40433591 49.86328654 9.3984375 51.7109375 C9.40754654 52.99851456 9.40754654 52.99851456 9.4168396 54.31210327 C9.36179122 58.99813332 9.10213993 62.22466979 6 66 C3.87890625 66.59375 3.87890625 66.59375 1.5625 66.5 C0.41974609 66.48453125 0.41974609 66.48453125 -0.74609375 66.46875 C-3.72602873 65.84900616 -4.89429267 65.24302425 -7 63 C-7.3897298 59.98584765 -7.53369515 57.32332238 -7.50390625 54.30859375 C-7.51332748 53.44871353 -7.52274872 52.58883331 -7.53245544 51.70289612 C-7.56115448 48.94752379 -7.56418444 46.19300971 -7.5625 43.4375 C-7.17985109 27.89151397 -7.17985109 27.89151397 -11 13 C-16.61834879 11.51040264 -21.22478839 10.44513534 -27 12 C-30.41465579 14.20055595 -32.6732463 16.13030171 -34 20 C-34.89100102 25.18948993 -35.15932111 30.20818783 -35.2109375 35.453125 C-35.23897043 37.05730249 -35.26763456 38.66146906 -35.296875 40.265625 C-35.33831082 42.76953225 -35.37524232 45.27322695 -35.40136719 47.77734375 C-35.42889692 50.21135176 -35.47471636 52.64446146 -35.5234375 55.078125 C-35.52669037 55.82813782 -35.52994324 56.57815063 -35.53329468 57.35089111 C-35.65584855 62.51394781 -35.65584855 62.51394781 -37.39501953 64.97021484 C-39.52131493 66.3344853 -40.98571676 66.40014283 -43.5 66.375 C-44.66015625 66.38660156 -44.66015625 66.38660156 -45.84375 66.3984375 C-48.49005943 65.90944554 -49.3402954 65.07463075 -51 63 C-52.32486105 60.35027789 -52.15640093 58.31183169 -52.19287109 55.34448242 C-52.20893402 54.15952682 -52.22499695 52.97457123 -52.24154663 51.75370789 C-52.28589963 46.33213768 -52.3275009 40.91071324 -52.35009766 35.48901367 C-52.36343377 32.62638367 -52.39127879 29.76446709 -52.43212891 26.90209961 C-52.49092365 22.78226678 -52.5087568 18.66319922 -52.5234375 14.54296875 C-52.55744156 12.62244942 -52.55744156 12.62244942 -52.59213257 10.66313171 C-52.5685624 0.78518931 -52.5685624 0.78518931 -49.61645508 -2.32519531 C-46.73158021 -4.17181672 -45.63980558 -4.5193548 -42.3125 -3.9375 C-41.54550781 -3.82277344 -40.77851563 -3.70804687 -39.98828125 -3.58984375 C-38 -3 -38 -3 -36 -1 C-36 0.32 -36 1.64 -36 3 C-35.52691406 2.59007812 -35.05382812 2.18015625 -34.56640625 1.7578125 C-24.79149033 -6.2069338 -10.57798439 -7.97988296 0 0 Z " fill="#85C1B5" transform="translate(462,471)"/>
<path d="M0 0 C4.59694821 3.84709141 6.14755111 8.22229089 7 14 C6.34 14.99 5.68 15.98 5 17 C2.28515625 17.46875 2.28515625 17.46875 -0.9375 17.5 C-2.52884766 17.54640625 -2.52884766 17.54640625 -4.15234375 17.59375 C-7 17 -7 17 -8.71484375 14.58203125 C-9.35099609 13.30392578 -9.35099609 13.30392578 -10 12 C-15.70806515 8.05871692 -21.47654539 8.4247421 -28.0625 9.5 C-28.701875 9.665 -29.34125 9.83 -30 10 C-30.75098647 12.7035513 -31.21725795 14.39801444 -30.25 17.078125 C-27.50757116 21.29460934 -20.74658157 21.83388715 -16.05859375 22.93359375 C-15.36008301 23.09988281 -14.66157227 23.26617187 -13.94189453 23.4375 C-12.55126739 23.76403111 -11.15771296 24.07840157 -9.76123047 24.37890625 C-2.80990124 25.98764731 1.98064739 29.11451939 6 35 C8.42339612 39.60445262 8.67366046 43.89503769 7.5703125 48.98046875 C5.37586822 55.98372611 0.89172192 60.45086326 -5.5 63.875 C-16.57252192 67.4340249 -28.57771755 67.11756031 -39.109375 61.96875 C-43.71333639 59.05684279 -46.44037929 55.22683699 -48 50 C-47.75 47 -47.75 47 -47 45 C-44.23952457 44.07984152 -42.36637731 43.80732755 -39.5 43.75 C-38.7265625 43.72421875 -37.953125 43.6984375 -37.15625 43.671875 C-34.48184614 44.0788495 -33.61412223 44.8685309 -32 47 C-32 47.66 -32 48.32 -32 49 C-27.66379353 50.64409037 -24.00855275 51.29622288 -19.375 51.3125 C-18.26898438 51.32925781 -17.16296875 51.34601562 -16.0234375 51.36328125 C-12.7034708 50.96437052 -11.30581335 50.39492691 -9 48 C-8.66602213 44.87413125 -8.66602213 44.87413125 -9 42 C-13.70943057 39.37871318 -18.04140974 38.18278568 -23.25 37.125 C-31.25164668 35.36034883 -38.68136745 33.3995748 -44.5625 27.375 C-47.84066372 21.95890341 -47.69365181 16.14934021 -47 10 C-44.43308205 3.38565956 -39.84759332 -0.60209055 -33.5625 -3.6875 C-22.47718196 -7.77156454 -9.76012655 -6.85246077 0 0 Z " fill="#85C2B6" transform="translate(394,472)"/>
<path d="M0 0 C4.82550067 4.5574173 7.76882502 8.43373346 9 15 C7.41800369 15.64910154 5.83434276 16.29414694 4.25 16.9375 C3.36828125 17.29714844 2.4865625 17.65679687 1.578125 18.02734375 C-0.61186104 18.85356576 -2.71898271 19.49369943 -5 20 C-5.29132812 19.45730469 -5.58265625 18.91460937 -5.8828125 18.35546875 C-8.5958594 13.62043407 -10.55251282 10.64452443 -16 9 C-21.06550143 8.3471866 -24.8075952 8.41463764 -29.4375 10.6875 C-35.09030047 15.78880774 -36.44420411 21.56013577 -37 29 C-36.59778212 35.46115951 -35.43178494 41.07579451 -31 46 C-26.23112197 49.32712421 -21.63902216 49.8558381 -16 49 C-13.02896752 48.05536403 -10.47211882 46.91389844 -8 45 C-7.30686092 43.34416775 -6.63525576 41.67889021 -6 40 C-2.82394919 38.68310088 -0.84263771 38.70308361 2.39453125 39.84375 C4.63547699 40.83188355 6.82543016 41.87405606 9 43 C8.52053749 48.11426676 6.2294032 52.10795982 3 56 C-5.03677338 62.62451429 -13.36474891 65.57989249 -23.77734375 64.7890625 C-33.79290912 63.30007242 -40.81841995 59.24657688 -47.2734375 51.44140625 C-53.80771653 42.2017583 -55.00793838 31.21548657 -53.3125 20.1875 C-51.31803217 11.13366578 -46.78782666 3.22523847 -39.19140625 -2.3203125 C-27.38773363 -8.94607468 -10.47779098 -9.09913427 0 0 Z " fill="#85C2B6" transform="translate(602,473)"/>
<path d="M0 0 C4.2729277 3.05105836 8.35218458 6.21365994 12 10 C12.36351562 9.28972656 12.72703125 8.57945312 13.1015625 7.84765625 C17.21340131 0.33037145 17.21340131 0.33037145 21.125 -1.3125 C24.51868579 -0.94362111 25.83369448 -0.66622218 28 2 C29.51108782 9.10211276 25.52509975 15.03102857 22 21 C18.94971329 25.55283535 15.88429367 30.11570633 12 34 C1.89742976 35.39408227 -9.24156694 32.86811268 -17.9609375 27.65234375 C-23.63376504 23.05539729 -28.36773906 15.77136455 -29.3359375 8.46484375 C-29.4413257 1.64622692 -29.4413257 1.64622692 -27.25 -1.5625 C-19.7454768 -6.35705649 -7.28039148 -4.28258322 0 0 Z M-16 9 C-15.22520264 11.99152582 -15.22520264 11.99152582 -14 15 C-13.01 15.33 -12.02 15.66 -11 16 C-10.7525 16.61875 -10.505 17.2375 -10.25 17.875 C-8.29496763 21.19855503 -5.54559555 21.77738085 -2 23 C-0.68 23 0.64 23 2 23 C1.72785002 18.50952531 -0.19549611 15.82515238 -3.109375 12.5859375 C-6.4487965 9.78468723 -11.82508389 6.91254195 -16 9 Z " fill="#8AC8BC" transform="translate(165,448)"/>
<path d="M0 0 C0.8065654 -0.00570007 1.6131308 -0.01140015 2.44413757 -0.01727295 C4.15309333 -0.02672695 5.86206735 -0.03325852 7.57104492 -0.03710938 C10.17854916 -0.0467982 12.78525953 -0.07781 15.39257812 -0.109375 C17.05338074 -0.11590685 18.71418899 -0.12115661 20.375 -0.125 C21.1522493 -0.1373468 21.9294986 -0.1496936 22.7303009 -0.16241455 C27.25711076 -0.14390418 30.37901135 0.22356551 33.88671875 3.203125 C34.38671875 6.703125 34.38671875 6.703125 33.88671875 10.203125 C32.60327148 11.89761353 32.60327148 11.89761353 30.88671875 13.203125 C27.8380935 13.50160493 24.9981178 13.62334345 21.94921875 13.6015625 C21.07273682 13.60443268 20.19625488 13.60730286 19.29321289 13.61026001 C17.44058587 13.61230098 15.58793733 13.60676878 13.73535156 13.59423828 C10.89729696 13.57818484 8.06066648 13.59408555 5.22265625 13.61328125 C3.42317394 13.61129882 1.62369251 13.60745516 -0.17578125 13.6015625 C-1.0258374 13.60763519 -1.87589355 13.61370789 -2.75170898 13.6199646 C-8.69724077 13.54887804 -8.69724077 13.54887804 -10.80639648 11.79605103 C-12.41545063 9.83481902 -12.96355531 8.74846599 -13.11328125 6.203125 C-9.93337696 -0.3081076 -6.72692756 0.03649664 0 0 Z " fill="#85C0B4" transform="translate(246.11328125,515.796875)"/>
<path d="M0 0 C0.66 0.33 1.32 0.66 2 1 C3.74339193 1.07291476 5.48958722 1.08365607 7.234375 1.0625 C8.28367188 1.05476563 9.33296875 1.04703125 10.4140625 1.0390625 C12.62239798 1.01320377 14.83073136 0.98716471 17.0390625 0.9609375 C18.09351563 0.95320313 19.14796875 0.94546875 20.234375 0.9375 C21.67635254 0.92009766 21.67635254 0.92009766 23.14746094 0.90234375 C26.17296947 1.00592158 29.02758777 1.44136685 32 2 C32 1.34 32 0.68 32 0 C38.13680387 2.15617433 38.13680387 2.15617433 40 5 C40.3125 8.5625 40.3125 8.5625 40 12 C36.08736861 15.91263139 30.50102355 15.17134534 25.25 15.203125 C24.51426758 15.20882507 23.77853516 15.21452515 23.02050781 15.22039795 C21.47071759 15.2298088 19.92090772 15.23636629 18.37109375 15.24023438 C16.0074584 15.24996928 13.64468277 15.28104 11.28125 15.3125 C9.77083846 15.31902835 8.26042075 15.32427948 6.75 15.328125 C5.6966748 15.3466452 5.6966748 15.3466452 4.62207031 15.36553955 C0.24094724 15.34574372 -2.51293 14.68425586 -6 12 C-7.30682411 9.38635178 -7.03913317 8.16827263 -6.375 5.3125 C-5 3 -5 3 -2.375 2.1875 C-1.59125 2.125625 -0.8075 2.06375 0 2 C0 1.34 0 0.68 0 0 Z " fill="#84C0B4" transform="translate(240,453)"/>
<path d="M0 0 C0.66 0 1.32 0 2 0 C2 0.66 2 1.32 2 2 C2.804375 2.12375 3.60875 2.2475 4.4375 2.375 C5.7059375 2.684375 5.7059375 2.684375 7 3 C8.38550197 5.77100394 8.1877467 7.9334706 8 11 C6 14 6 14 4.18519592 14.39440918 C3.08624245 14.40703796 3.08624245 14.40703796 1.96508789 14.41992188 C1.13405045 14.43583374 0.303013 14.45174561 -0.5532074 14.46813965 C-1.90165489 14.46844177 -1.90165489 14.46844177 -3.27734375 14.46875 C-4.66077721 14.48017029 -4.66077721 14.48017029 -6.07215881 14.49182129 C-8.02488494 14.50263817 -9.977669 14.50546896 -11.93041992 14.50097656 C-14.92269191 14.50000481 -17.91239592 14.54159479 -20.90429688 14.5859375 C-22.7994738 14.59114466 -24.69465967 14.59383269 -26.58984375 14.59375 C-27.48678452 14.61014526 -28.38372528 14.62654053 -29.30784607 14.64343262 C-31.64574861 14.61735322 -33.72777012 14.55076337 -36 14 C-38.09985352 11.63085938 -38.09985352 11.63085938 -39 9 C-38.76271993 5.5989856 -38.430466 4.430466 -36 2 C-33.27514272 1.82482253 -30.65340638 1.76850867 -27.9296875 1.8046875 C-27.13345978 1.8075174 -26.33723206 1.81034729 -25.51687622 1.81326294 C-22.96943237 1.8244736 -20.42233789 1.84957938 -17.875 1.875 C-16.14974465 1.88502867 -14.42448381 1.89415472 -12.69921875 1.90234375 C-8.46601086 1.92441578 -4.2330647 1.95895133 0 2 C0 1.34 0 0.68 0 0 Z " fill="#84BFB4" transform="translate(272,485)"/>
<path d="M0 0 C2.3629151 2.3629151 2.25803206 2.84291753 2.30297852 6.05078125 C2.31962051 6.88504639 2.33626251 7.71931152 2.35340881 8.57885742 C2.36182297 9.48095947 2.37023712 10.38306152 2.37890625 11.3125 C2.39590073 12.23716064 2.4128952 13.16182129 2.43040466 14.11450195 C2.48365254 17.07626477 2.52387999 20.03801308 2.5625 23 C2.6063962 25.9619143 2.65308974 28.92371849 2.70530701 31.88549805 C2.73730983 33.73062917 2.76418559 35.57585747 2.78553772 37.42114258 C2.79902756 38.25540771 2.8125174 39.08967285 2.82641602 39.94921875 C2.83592789 40.68487061 2.84543976 41.42052246 2.85523987 42.1784668 C2.89332709 44.09911241 2.89332709 44.09911241 4 46 C3.34 46.66 2.68 47.32 2 48 C9 41 16 34 23 27 C23.33 27.66 23.66 28.32 24 29 C21.43505611 31.56959053 18.86519223 34.13306457 16.28125 36.68359375 C14.90453125 38.04677734 14.90453125 38.04677734 13.5 39.4375 C13.01660156 39.91614502 12.53320312 40.39479004 12.03515625 40.88793945 C9.53605411 43.38492515 7.17436845 45.90324772 5 48.6875 C4.34 49.450625 3.68 50.21375 3 51 C2.01 51 1.02 51 0 51 C0 34.17 0 17.34 0 0 Z " fill="#78ACA0" transform="translate(635,443)"/>
<path d="M0 0 C5.81845979 2.28582349 8.5446376 7.43372772 11.1171875 12.83203125 C15.01491603 22.40388672 15.17274908 33.17635447 12 43 C10.42578125 45.29296875 10.42578125 45.29296875 9 47 C9.33 45.88625 9.66 44.7725 10 43.625 C12.09333245 33.89716096 13.08095045 22.59612312 8.125 13.6875 C7.59132813 12.88699219 7.05765625 12.08648437 6.5078125 11.26171875 C4.94318758 8.91478137 4.01111988 6.62368176 3 4 C2.04175747 2.63634717 1.05278825 1.29205831 0 0 Z " fill="#70A396" transform="translate(883,473)"/>
<path d="M0 0 C2 2 2 2 2.5 4.875 C2.37645235 10.70644913 -1.0387897 16.13625044 -4 21 C-4.66 21.33 -5.32 21.66 -6 22 C-5.01430171 18.8154363 -3.99290813 15.98718008 -2.375 13.0625 C-0.76305735 9.4722641 -0.69452764 6.89477253 -1 3 C-2.05224667 1.72443182 -2.05224667 1.72443182 -4.4375 1.875 C-6.98978622 1.82693324 -6.98978622 1.82693324 -9 3 C-8.67 2.01 -8.34 1.02 -8 0 C-5.09288879 -1.4535556 -3.10402897 -0.71133997 0 0 Z " fill="#82B4A7" transform="translate(191,448)"/>
<path d="M0 0 C0.76957031 0.680625 0.76957031 0.680625 1.5546875 1.375 C5.59567546 4.06038497 10.21824812 4.77378331 14.8828125 5.9375 C18 7 18 7 20 10 C13.27942026 9.62663446 7.59418041 7.8576969 2 4 C0.7109375 1.83203125 0.7109375 1.83203125 0 0 Z " fill="#7CB1A5" transform="translate(350,498)"/>
<path d="M0 0 C4.22434114 1.56457079 6.44526698 4.38079489 9 8 C9.3125 10.875 9.3125 10.875 9 13 C5.57186835 14.14271055 4.69088901 13.82699932 1.375 12.6875 C0.18003906 12.29111328 0.18003906 12.29111328 -1.0390625 11.88671875 C-3 11 -3 11 -4 9 C1.445 10.485 1.445 10.485 7 12 C3.99525218 5.69613518 3.99525218 5.69613518 0 0 Z " fill="#7BAFA3" transform="translate(160,459)"/>
<path d="M0 0 C9.57094477 1.62088581 16.89663116 4.67075743 25 10 C23 11 23 11 20.0625 10.25 C17 9 17 9 15.7578125 7.55859375 C13.10407514 5.20561329 10.20984506 4.7163808 6.8125 3.8125 C5.54019531 3.46832031 4.26789063 3.12414062 2.95703125 2.76953125 C1.98121094 2.51558594 1.00539062 2.26164063 0 2 C0 1.34 0 0.68 0 0 Z " fill="#7BAA9E" transform="translate(166,565)"/>
<path d="M0 0 C2.69201769 0.94395426 5.34116719 1.96350585 8 3 C7.25 7.75 7.25 7.75 5 10 C5 8.02 5 6.04 5 4 C0.545 3.01 0.545 3.01 -4 2 C-4.99 3.32 -5.98 4.64 -7 6 C-7.66 5.67 -8.32 5.34 -9 5 C-6.9809392 -0.62452651 -5.83406442 -1.52192985 0 0 Z " fill="#74A89B" transform="translate(603,513)"/>
<path d="M0 0 C0.33 0.66 0.66 1.32 1 2 C0.00390625 3.9453125 0.00390625 3.9453125 -1.4375 6.125 C-1.91058594 6.84945313 -2.38367188 7.57390625 -2.87109375 8.3203125 C-3.24363281 8.87460937 -3.61617187 9.42890625 -4 10 C-8.17882671 7.43571997 -11.12505529 4.98069267 -14 1 C-9.16743695 1.41421969 -7.17320782 3.46413986 -4 7 C-2.68 4.69 -1.36 2.38 0 0 Z " fill="#82B7AA" transform="translate(181,451)"/>
<path d="M0 0 C0.99 0.33 1.98 0.66 3 1 C2.38125 1.0825 1.7625 1.165 1.125 1.25 C-1.13953908 1.77260299 -1.13953908 1.77260299 -1.875 3.75 C-3.53454373 7.06908746 -6.07241641 8.78937565 -9 11 C-9.99 11.33 -10.98 11.66 -12 12 C-10.56394807 8.61181498 -8.79533421 6.6813402 -6 4.3125 C-5.29875 3.71050781 -4.5975 3.10851562 -3.875 2.48828125 C-2 1 -2 1 0 0 Z " fill="#78AFA3" transform="translate(777,469)"/>
<path d="M0 0 C4.90546929 1.92714865 7.16276127 5.74414191 10 10 C10.07905064 12.33199388 10.08798769 14.66832622 10 17 C5.47058824 10.20588235 5.47058824 10.20588235 4 6.4375 C2.97120841 3.92982049 1.70533328 2.09290902 0 0 Z " fill="#7AB1A5" transform="translate(883,473)"/>
<path d="M0 0 C0.33 0 0.66 0 1 0 C1 1.65 1 3.3 1 5 C4.96 5.33 8.92 5.66 13 6 C13 6.33 13 6.66 13 7 C11.329375 7.2165625 11.329375 7.2165625 9.625 7.4375 C6.17857953 7.78372035 6.17857953 7.78372035 4 9 C4 8.34 4 7.68 4 7 C3.360625 6.87625 2.72125 6.7525 2.0625 6.625 C1.381875 6.41875 0.70125 6.2125 0 6 C-1.24546405 3.50907189 -0.7767578 2.58919267 0 0 Z " fill="#77AA9D" transform="translate(483,483)"/>
<path d="M0 0 C0.66 0.33 1.32 0.66 2 1 C0.02 3.31 -1.96 5.62 -4 8 C-5.32 7.67 -6.64 7.34 -8 7 C-5.36 4.69 -2.72 2.38 0 0 Z " fill="#81B7AB" transform="translate(209,416)"/>
<path d="M0 0 C0.268125 0.639375 0.53625 1.27875 0.8125 1.9375 C1.88667752 4.33131686 1.88667752 4.33131686 5 5 C5 5.66 5 6.32 5 7 C6.32 7.66 7.64 8.32 9 9 C7.68 9.33 6.36 9.66 5 10 C4.15801693 8.90241493 3.32669329 7.79664683 2.5 6.6875 C2.0359375 6.07261719 1.571875 5.45773437 1.09375 4.82421875 C0 3 0 3 0 0 Z " fill="#84BEB1" transform="translate(774,512)"/>
<path d="M0 0 C1.875 0.5625 1.875 0.5625 4 2 C5.25 5.625 5.25 5.625 6 9 C0.42857143 3.85714286 0.42857143 3.85714286 0 0 Z " fill="#82BCB1" transform="translate(460,471)"/>
<path d="M0 0 C4.62 0 9.24 0 14 0 C13.67 1.32 13.34 2.64 13 4 C12.01 4.495 12.01 4.495 11 5 C11 3.68 11 2.36 11 1 C7.37 1 3.74 1 0 1 C0 0.67 0 0.34 0 0 Z " fill="#9DDED3" transform="translate(661,469)"/>
<path d="M0 0 C0.99 0.33 1.98 0.66 3 1 C0.03 3.97 -2.94 6.94 -6 10 C-6.66 9.67 -7.32 9.34 -8 9 C-7.04882866 7.8274869 -6.08882991 6.66212985 -5.125 5.5 C-4.32449219 4.52546875 -4.32449219 4.52546875 -3.5078125 3.53125 C-2.76144531 2.77328125 -2.76144531 2.77328125 -2 2 C-1.34 2 -0.68 2 0 2 C0 1.34 0 0.68 0 0 Z " fill="#8FCFC4" transform="translate(659,470)"/>
<path d="M0 0 C0.66 0.66 1.32 1.32 2 2 C-0.97 4.97 -3.94 7.94 -7 11 C-7 7.22089522 -6.00296038 6.53893899 -3.5 3.8125 C-2.8503125 3.09707031 -2.200625 2.38164062 -1.53125 1.64453125 C-1.0259375 1.10183594 -0.520625 0.55914062 0 0 Z " fill="#8DCCC2" transform="translate(937,477)"/>
<path d="M0 0 C3.24208567 0.35049575 4.61527704 0.56221181 6.8125 3.0625 C7.204375 3.701875 7.59625 4.34125 8 5 C7.67 5.66 7.34 6.32 7 7 C5.83040013 6.02433888 4.66438823 5.044375 3.5 4.0625 C2.8503125 3.51722656 2.200625 2.97195313 1.53125 2.41015625 C1.0259375 1.94480469 0.520625 1.47945313 0 1 C0 0.67 0 0.34 0 0 Z " fill="#7AB2A5" transform="translate(738,474)"/>
<path d="M0 0 C0.33 1.32 0.66 2.64 1 4 C-0.98 5.32 -2.96 6.64 -5 8 C-5.66 7.67 -6.32 7.34 -7 7 C-6.38125 6.7525 -5.7625 6.505 -5.125 6.25 C-2.62985717 4.78226892 -2.09872287 3.62003145 -1 1 C-0.67 0.67 -0.34 0.34 0 0 Z " fill="#8FCFC4" transform="translate(599,514)"/>
<path d="M0 0 C0.66 0.33 1.32 0.66 2 1 C-0.31 3.64 -2.62 6.28 -5 9 C-5 4.61031544 -2.87194899 3.23094261 0 0 Z " fill="#90D1C6" transform="translate(844,474)"/>
<path d="M0 0 C1.46067199 0.45082469 2.91848032 0.91093537 4.375 1.375 C5.18710938 1.63023437 5.99921875 1.88546875 6.8359375 2.1484375 C9 3 9 3 11 5 C4.6 4.50769231 4.6 4.50769231 1.5625 1.9375 C1.046875 1.298125 0.53125 0.65875 0 0 Z " fill="#7DC6BC" transform="translate(147,474)"/>
<path d="M0 0 C0.33 0 0.66 0 1 0 C1 1.98 1 3.96 1 6 C0.67 6 0.34 6 0 6 C0 4.02 0 2.04 0 0 Z " fill="#8DC3B8" transform="translate(540,514)"/>
<path d="M0 0 C0.33 0 0.66 0 1 0 C1 1.98 1 3.96 1 6 C0.67 6 0.34 6 0 6 C0 4.02 0 2.04 0 0 Z " fill="#8DC5B9" transform="translate(540,505)"/>
<path d="M0 0 C0.33 0 0.66 0 1 0 C1 1.65 1 3.3 1 5 C0.67 5 0.34 5 0 5 C0 3.35 0 1.7 0 0 Z " fill="#8DC4B8" transform="translate(540,499)"/>
<path d="M0 0 C0.99 0.33 1.98 0.66 3 1 C2.01 1 1.02 1 0 1 C0 0.67 0 0.34 0 0 Z " fill="#8CC7BA" transform="translate(708,486)"/>
<path d="M0 0 C3 1 3 1 3 1 Z " fill="#91C2B7" transform="translate(168,581)"/>
<path d="M0 0 C3 1 3 1 3 1 Z " fill="#A2C7BC" transform="translate(181,568)"/>
<path d="M0 0 C3 1 3 1 3 1 Z " fill="#D8C4B4" transform="translate(150,543)"/>
<path d="M0 0 C3 1 3 1 3 1 Z " fill="#8CC5BA" transform="translate(604,512)"/>
<path d="M0 0 C0.66 0 1.32 0 2 0 C1.67 0.66 1.34 1.32 1 2 C0.67 1.34 0.34 0.68 0 0 Z " fill="#8CC3B6" transform="translate(500,510)"/>
<path d="M0 0 C3 1 3 1 3 1 Z " fill="#9DC7BB" transform="translate(243,500)"/>
<path d="" fill="#8DC5B9" transform="translate(0,0)"/>
<path d="" fill="#8CC3B8" transform="translate(0,0)"/>
<path d="M0 0 C3 1 3 1 3 1 Z " fill="#8BC1B6" transform="translate(515,465)"/>
<path d="M0 0 C2 1 2 1 2 1 Z " fill="#91C2B7" transform="translate(225,581)"/>
<path d="" fill="#DAC3B5" transform="translate(0,0)"/>
<path d="M0 0 C2 1 2 1 2 1 Z " fill="#8BB8B0" transform="translate(462,538)"/>
<path d="" fill="#8ABDB2" transform="translate(0,0)"/>
<path d="M0 0 C2 1 2 1 2 1 Z " fill="#8CC3B5" transform="translate(597,535)"/>
<path d="M0 0 C2 1 2 1 2 1 Z " fill="#8AC2B7" transform="translate(521,533)"/>
<path d="" fill="#90C8BA" transform="translate(0,0)"/>
<path d="" fill="#91BFB5" transform="translate(0,0)"/>
<path d="M0 0 C2 1 2 1 2 1 Z " fill="#95C5BA" transform="translate(275,514)"/>
<path d="" fill="#8EC3B9" transform="translate(0,0)"/>
<path d="" fill="#92C8BC" transform="translate(0,0)"/>
<path d="" fill="#90C7BD" transform="translate(0,0)"/>
<path d="" fill="#8EC2B8" transform="translate(0,0)"/>
<path d="" fill="#8FC7BB" transform="translate(0,0)"/>
<path d="" fill="#8EC4B8" transform="translate(0,0)"/>
<path d="" fill="#8FC4B8" transform="translate(0,0)"/>
<path d="" fill="#90C1B6" transform="translate(0,0)"/>
<path d="" fill="#8EC5B8" transform="translate(0,0)"/>
<path d="" fill="#93C8BD" transform="translate(0,0)"/>
<path d="" fill="#8EC2B7" transform="translate(0,0)"/>
<path d="M0 0 C2 1 2 1 2 1 Z " fill="#92C7BD" transform="translate(161,421)"/>
<path d="" fill="#8EBFB5" transform="translate(0,0)"/>
<path d="" fill="#92C3BA" transform="translate(0,0)"/>
<path d="" fill="#90C0B7" transform="translate(0,0)"/>
<path d="" fill="#90BEB5" transform="translate(0,0)"/>
<path d="" fill="#91C1B6" transform="translate(0,0)"/>
<path d="" fill="#8EBCB3" transform="translate(0,0)"/>
<path d="" fill="#9AC4B8" transform="translate(0,0)"/>
<path d="" fill="#99C6BC" transform="translate(0,0)"/>
<path d="" fill="#9BC9BD" transform="translate(0,0)"/>
<path d="" fill="#A3C9BE" transform="translate(0,0)"/>
<path d="" fill="#9FC6BA" transform="translate(0,0)"/>
<path d="" fill="#8DBCB0" transform="translate(0,0)"/>
<path d="" fill="#9DC3B8" transform="translate(0,0)"/>
<path d="" fill="#92C4B9" transform="translate(0,0)"/>
<path d="" fill="#93C2B9" transform="translate(0,0)"/>
<path d="" fill="#97C6BC" transform="translate(0,0)"/>
<path d="" fill="#A3C8BC" transform="translate(0,0)"/>
<path d="" fill="#A0C5BA" transform="translate(0,0)"/>
<path d="" fill="#8CBDB3" transform="translate(0,0)"/>
<path d="" fill="#90C3B8" transform="translate(0,0)"/>
<path d="" fill="#8AB6AD" transform="translate(0,0)"/>
<path d="" fill="#8EBEB3" transform="translate(0,0)"/>
<path d="" fill="#8EBFB4" transform="translate(0,0)"/>
<path d="" fill="#8FBFB4" transform="translate(0,0)"/>
<path d="" fill="#8EBEB4" transform="translate(0,0)"/>
<path d="" fill="#86BBB2" transform="translate(0,0)"/>
<path d="" fill="#88BFB1" transform="translate(0,0)"/>
<path d="" fill="#87BCB2" transform="translate(0,0)"/>
<path d="" fill="#8ABFB2" transform="translate(0,0)"/>
<path d="" fill="#89C0B2" transform="translate(0,0)"/>
<path d="" fill="#86BAAC" transform="translate(0,0)"/>
<path d="" fill="#89BCB2" transform="translate(0,0)"/>
<path d="" fill="#8ABCB1" transform="translate(0,0)"/>
<path d="" fill="#8ABEB4" transform="translate(0,0)"/>
<path d="" fill="#8FC0B5" transform="translate(0,0)"/>
<path d="" fill="#8DC0B3" transform="translate(0,0)"/>
<path d="" fill="#8CBFB3" transform="translate(0,0)"/>
<path d="" fill="#8CBFB5" transform="translate(0,0)"/>
<path d="" fill="#8CC0B4" transform="translate(0,0)"/>
<path d="" fill="#8ABDB2" transform="translate(0,0)"/>
<path d="" fill="#8CC1B6" transform="translate(0,0)"/>
<path d="" fill="#8CBEB3" transform="translate(0,0)"/>
<path d="" fill="#8CC0B8" transform="translate(0,0)"/>
<path d="" fill="#8CC0B4" transform="translate(0,0)"/>
<path d="" fill="#89C1B4" transform="translate(0,0)"/>
<path d="" fill="#8CC2B5" transform="translate(0,0)"/>
<path d="" fill="#8FC5B8" transform="translate(0,0)"/>
<path d="" fill="#8BBEB5" transform="translate(0,0)"/>
<path d="" fill="#8DBFB3" transform="translate(0,0)"/>
<path d="" fill="#8ABEB4" transform="translate(0,0)"/>
<path d="" fill="#8CC3B8" transform="translate(0,0)"/>
<path d="" fill="#8CC1B4" transform="translate(0,0)"/>
<path d="" fill="#8DC2B6" transform="translate(0,0)"/>
<path d="" fill="#90C5B9" transform="translate(0,0)"/>
<path d="" fill="#8CC2B4" transform="translate(0,0)"/>
<path d="" fill="#8CC0B4" transform="translate(0,0)"/>
<path d="" fill="#8BC1B3" transform="translate(0,0)"/>
<path d="" fill="#89BDB1" transform="translate(0,0)"/>
<path d="" fill="#8CC0B5" transform="translate(0,0)"/>
<path d="" fill="#8CC5BA" transform="translate(0,0)"/>
<path d="" fill="#8EC4B7" transform="translate(0,0)"/>
<path d="" fill="#8BC1B7" transform="translate(0,0)"/>
<path d="" fill="#8CC3B7" transform="translate(0,0)"/>
<path d="" fill="#8EC6BC" transform="translate(0,0)"/>
<path d="" fill="#8AC2B5" transform="translate(0,0)"/>
<path d="" fill="#8DC3B7" transform="translate(0,0)"/>
<path d="" fill="#8FC6B9" transform="translate(0,0)"/>
<path d="" fill="#8CC2B7" transform="translate(0,0)"/>
<path d="" fill="#8FC4B9" transform="translate(0,0)"/>
<path d="" fill="#8EC2B7" transform="translate(0,0)"/>
<path d="" fill="#92C3B7" transform="translate(0,0)"/>
<path d="" fill="#90C6BA" transform="translate(0,0)"/>
<path d="" fill="#94CABE" transform="translate(0,0)"/>
<path d="" fill="#91C7BB" transform="translate(0,0)"/>
<path d="" fill="#8CC4B9" transform="translate(0,0)"/>
<path d="" fill="#8EC6BA" transform="translate(0,0)"/>
<path d="" fill="#95C4BB" transform="translate(0,0)"/>
<path d="" fill="#90C8BC" transform="translate(0,0)"/>
<path d="" fill="#91C9BC" transform="translate(0,0)"/>
<path d="" fill="#91C6BA" transform="translate(0,0)"/>
<path d="" fill="#8AC2B5" transform="translate(0,0)"/>
<path d="" fill="#91CAC0" transform="translate(0,0)"/>
<path d="" fill="#90C3B9" transform="translate(0,0)"/>
<path d="" fill="#94CCBD" transform="translate(0,0)"/>
<path d="" fill="#90C6B9" transform="translate(0,0)"/>
<path d="" fill="#D9C6B4" transform="translate(0,0)"/>
<path d="" fill="#8DC2B8" transform="translate(0,0)"/>
<path d="" fill="#92C3B7" transform="translate(0,0)"/>
<path d="" fill="#95C8BD" transform="translate(0,0)"/>
<path d="" fill="#96C5BA" transform="translate(0,0)"/>
<path d="" fill="#95C5BA" transform="translate(0,0)"/>
<path d="" fill="#A6C7BA" transform="translate(0,0)"/>
<path d="" fill="#8FC5B9" transform="translate(0,0)"/>
<path d="" fill="#8EC3B8" transform="translate(0,0)"/>
<path d="" fill="#90C7BB" transform="translate(0,0)"/>
<path d="" fill="#8DC5B9" transform="translate(0,0)"/>
<path d="" fill="#91C8BC" transform="translate(0,0)"/>
<path d="" fill="#8EC4B9" transform="translate(0,0)"/>
<path d="" fill="#8DC4B9" transform="translate(0,0)"/>
<path d="" fill="#8FC8BB" transform="translate(0,0)"/>
<path d="" fill="#8EC6B9" transform="translate(0,0)"/>
<path d="" fill="#8FC8BB" transform="translate(0,0)"/>
<path d="" fill="#8FC4B7" transform="translate(0,0)"/>
<path d="" fill="#91C5B9" transform="translate(0,0)"/>
<path d="" fill="#92C8BD" transform="translate(0,0)"/>
<path d="" fill="#95C8BD" transform="translate(0,0)"/>
<path d="" fill="#90C6BA" transform="translate(0,0)"/>
<path d="" fill="#8EC3B8" transform="translate(0,0)"/>
<path d="" fill="#8DC5B6" transform="translate(0,0)"/>
<path d="" fill="#90C6BC" transform="translate(0,0)"/>
<path d="" fill="#8DC3B7" transform="translate(0,0)"/>
<path d="" fill="#90C4B9" transform="translate(0,0)"/>
<path d="" fill="#8FC3B8" transform="translate(0,0)"/>
<path d="" fill="#93C8BA" transform="translate(0,0)"/>
<path d="" fill="#8DC3B5" transform="translate(0,0)"/>
<path d="" fill="#8DC5B5" transform="translate(0,0)"/>
<path d="" fill="#8DC8BB" transform="translate(0,0)"/>
<path d="" fill="#90C6B8" transform="translate(0,0)"/>
<path d="" fill="#95C5B9" transform="translate(0,0)"/>
<path d="" fill="#8DC7B8" transform="translate(0,0)"/>
<path d="" fill="#8CC6BA" transform="translate(0,0)"/>
<path d="" fill="#8FC8BB" transform="translate(0,0)"/>
<path d="" fill="#90C5B9" transform="translate(0,0)"/>
<path d="" fill="#8DC3B7" transform="translate(0,0)"/>
<path d="" fill="#9BC7BC" transform="translate(0,0)"/>
<path d="" fill="#9BC7BC" transform="translate(0,0)"/>
<path d="" fill="#D9C5B3" transform="translate(0,0)"/>
<path d="" fill="#91C2B7" transform="translate(0,0)"/>
<path d="" fill="#8CC3BB" transform="translate(0,0)"/>
<path d="" fill="#8DC4B8" transform="translate(0,0)"/>
<path d="" fill="#8EC4B8" transform="translate(0,0)"/>
<path d="" fill="#8DC4BA" transform="translate(0,0)"/>
<path d="" fill="#90C6B9" transform="translate(0,0)"/>
<path d="" fill="#8DC3B7" transform="translate(0,0)"/>
<path d="" fill="#8FC4B9" transform="translate(0,0)"/>
<path d="" fill="#90C6BA" transform="translate(0,0)"/>
<path d="" fill="#8CC3B7" transform="translate(0,0)"/>
<path d="" fill="#8EC4B8" transform="translate(0,0)"/>
<path d="" fill="#8CC2B6" transform="translate(0,0)"/>
<path d="" fill="#92C6B9" transform="translate(0,0)"/>
<path d="" fill="#91C5B9" transform="translate(0,0)"/>
<path d="" fill="#89C4B6" transform="translate(0,0)"/>
<path d="" fill="#8FC4B7" transform="translate(0,0)"/>
<path d="" fill="#8BC2B5" transform="translate(0,0)"/>
<path d="" fill="#92C1B7" transform="translate(0,0)"/>
<path d="" fill="#90C5B8" transform="translate(0,0)"/>
<path d="" fill="#95CABE" transform="translate(0,0)"/>
<path d="" fill="#8CC2B4" transform="translate(0,0)"/>
<path d="" fill="#8DC3B6" transform="translate(0,0)"/>
<path d="" fill="#8DC5B9" transform="translate(0,0)"/>
<path d="" fill="#8CC3B9" transform="translate(0,0)"/>
<path d="" fill="#8FC4B8" transform="translate(0,0)"/>
<path d="" fill="#C9C9B6" transform="translate(0,0)"/>
<path d="" fill="#C9CBBB" transform="translate(0,0)"/>
<path d="" fill="#8BC2B6" transform="translate(0,0)"/>
<path d="" fill="#8AC4B8" transform="translate(0,0)"/>
<path d="" fill="#93C9BC" transform="translate(0,0)"/>
<path d="" fill="#B8CBB9" transform="translate(0,0)"/>
<path d="" fill="#89BBB0" transform="translate(0,0)"/>
<path d="" fill="#95CBC0" transform="translate(0,0)"/>
<path d="" fill="#8FC2B8" transform="translate(0,0)"/>
<path d="" fill="#8BC1B4" transform="translate(0,0)"/>
<path d="" fill="#9BC5B8" transform="translate(0,0)"/>
<path d="" fill="#8BC2B7" transform="translate(0,0)"/>
<path d="" fill="#8BBFB4" transform="translate(0,0)"/>
<path d="" fill="#93C4B9" transform="translate(0,0)"/>
<path d="" fill="#93C5BC" transform="translate(0,0)"/>
<path d="" fill="#9FCABD" transform="translate(0,0)"/>
<path d="" fill="#8CC2B8" transform="translate(0,0)"/>
<path d="" fill="#8DC0B5" transform="translate(0,0)"/>
<path d="" fill="#8DC1B7" transform="translate(0,0)"/>
<path d="" fill="#8DC6BA" transform="translate(0,0)"/>
<path d="" fill="#89C0B4" transform="translate(0,0)"/>
<path d="" fill="#91C6BA" transform="translate(0,0)"/>
<path d="" fill="#8DC1B6" transform="translate(0,0)"/>
<path d="" fill="#8FC2B8" transform="translate(0,0)"/>
<path d="" fill="#9ACDC0" transform="translate(0,0)"/>
<path d="" fill="#8ABFB3" transform="translate(0,0)"/>
<path d="" fill="#8EC2B7" transform="translate(0,0)"/>
<path d="" fill="#8CC1B7" transform="translate(0,0)"/>
<path d="" fill="#8FC4B7" transform="translate(0,0)"/>
<path d="" fill="#8DC2B6" transform="translate(0,0)"/>
<path d="" fill="#9DC3BA" transform="translate(0,0)"/>
<path d="" fill="#B1C5B7" transform="translate(0,0)"/>
<path d="" fill="#8CC2B6" transform="translate(0,0)"/>
<path d="" fill="#8EC3B6" transform="translate(0,0)"/>
<path d="" fill="#90C3B7" transform="translate(0,0)"/>
<path d="" fill="#9DCEBE" transform="translate(0,0)"/>
<path d="" fill="#A1C7BA" transform="translate(0,0)"/>
<path d="" fill="#9AC9BE" transform="translate(0,0)"/>
<path d="" fill="#9FC9B9" transform="translate(0,0)"/>
<path d="" fill="#96C8BC" transform="translate(0,0)"/>
<path d="" fill="#A3C4B8" transform="translate(0,0)"/>
<path d="" fill="#8DC1B6" transform="translate(0,0)"/>
<path d="" fill="#8BBDB1" transform="translate(0,0)"/>
<path d="" fill="#8BBCB1" transform="translate(0,0)"/>
<path d="" fill="#93CBBD" transform="translate(0,0)"/>
<path d="" fill="#92C5BA" transform="translate(0,0)"/>
<path d="" fill="#8DC1B6" transform="translate(0,0)"/>
<path d="" fill="#8CC2B4" transform="translate(0,0)"/>
<path d="" fill="#92C7BC" transform="translate(0,0)"/>
<path d="" fill="#90C2B5" transform="translate(0,0)"/>
<path d="" fill="#90C4B8" transform="translate(0,0)"/>
<path d="" fill="#92C6BB" transform="translate(0,0)"/>
<path d="" fill="#98CDBE" transform="translate(0,0)"/>
<path d="" fill="#8FC5BA" transform="translate(0,0)"/>
<path d="" fill="#90C4BB" transform="translate(0,0)"/>
<path d="" fill="#91C6BD" transform="translate(0,0)"/>
<path d="" fill="#90C5BA" transform="translate(0,0)"/>
<path d="" fill="#91C4BB" transform="translate(0,0)"/>
<path d="" fill="#91C6B8" transform="translate(0,0)"/>
<path d="" fill="#8FC3BA" transform="translate(0,0)"/>
<path d="" fill="#90C4BA" transform="translate(0,0)"/>
<path d="" fill="#92C6B9" transform="translate(0,0)"/>
<path d="" fill="#92C6BA" transform="translate(0,0)"/>
</svg>
